# xmcd
#
# Track frame offsets: 
#        150
#        19285
#        38797
#        59520
#        76790
#        95077
#        122292
#        139902
#        160175
#
# Disc length: 2376 seconds
#
# Revision: 4
# Processed by: cddbd v1.5.2PL0 Copyright (c) Steve Scherf et al.
# Submitted via: ExactAudioCopy v0.95b4
#
DISCID=6f094609
DTITLE=Loudness - Lightning Strikes
DYEAR=1986
DGENRE=Heavy Metal
TTITLE0=Let It Go
TTITLE1=Dark Desire
TTITLE2=1000 Eyes
TTITLE3=Face To Face
TTITLE4=Who Knows
TTITLE5=Ashes In The Sky
TTITLE6=Black Star Oblivion
TTITLE7=Street Life Dream
TTITLE8=Complication
EXTD=YEAR: 1986
EXTT0=
EXTT1=
EXTT2=
EXTT3=
EXTT4=
EXTT5=
EXTT6=
EXTT7=
EXTT8=
PLAYORDER=
